<svg xmlns="http://www.w3.org/2000/svg" viewBox="0 0 512 512">
  <rect width="512" height="512" rx="100" fill="#020617"/>
  <circle cx="256" cy="256" r="200" fill="#1e293b" opacity="0.5"/>
  <path d="M256 120c-75.1 0-136 60.9-136 136 0 75.1 60.9 136 136 136s136-60.9 136-136c0-75.1-60.9-136-136-136zm0 248c-61.9 0-112-50.1-112-112s50.1-112 112-112 112 50.1 112 112-50.1 112-112 112z" fill="#3b82f6"/>
  <path d="M256 176c-44.2 0-80 35.8-80 80s35.8 80 80 80 80-35.8 80-80-35.8-80-80-80zm0 136c-30.9 0-56-25.1-56-56s25.1-56 56-56 56 25.1 56 56-25.1 56-56 56z" fill="#ffffff"/>
</svg>